<?xml version="1.0" encoding="utf-8" ?><svg xmlns="http://www.w3.org/2000/svg" xmlns:xlink="http://www.w3.org/1999/xlink" width="845" height="411" viewBox="0 0 845 411"><clipPath id="cl_3"><rect y="-0.00024414062" width="845" height="410.99997"/></clipPath><g clip-path="url(#cl_3)"><path fill="#D50A0D" transform="matrix(0.401807 0 0 0.40176 0 -0.000244141)" d="M306.821 112.958L309.139 112.781C339.06 110.582 357.918 117.805 382.788 133.523C437.334 167.992 456 221.471 460.093 283.016C492.885 273.032 528.3 249.172 555.9 228.705C620.103 181.087 609.161 236.862 588.178 278.76C559.173 336.685 524.397 367.636 475.711 407.837C499.585 395.568 524.009 384.406 548.906 374.383C650.921 333.28 746.511 317.119 855.099 342.686C873.977 347.129 898.643 351.269 916.086 358.676C883.377 354.878 845.52 344.401 810.476 339.988C713.174 327.731 625.836 346.479 536.976 386.11C502.428 401.517 490.718 401.99 458.604 426.761C468.587 423.844 479.843 419.58 488.882 415.087C578.103 370.733 673.333 360.79 771.464 369.883C791.249 371.719 818.663 373.632 837.562 380.792C811.151 379.019 784.409 375.38 757.976 373.665C708.272 370.158 658.325 372.456 609.155 380.516C553.797 392.102 495.596 415.836 446.214 443.148C407.314 466.323 377.313 502.339 329.888 508.032C307.006 510.782 286.664 502.381 306.945 476.571C310.279 472.329 322.517 464.677 327.785 462.1C353.39 449.584 382.557 440.993 410.034 433.811C414.562 432.627 409.736 435.741 413.483 432.905C407.977 428.375 401.635 426.563 395.238 423.282C359.325 404.853 315.528 381.56 274.101 393.847C255.846 399.595 239.156 415.09 235.988 434.601C229.517 474.466 260.42 485.54 291.445 490.822C243.459 524.308 204.355 559.298 144.265 569.491C123.888 572.946 75.4031 575.93 58.1056 563.887L59.3168 562.673C67.8857 564.104 86.8677 568.153 93.9805 568.217C161.197 568.836 219.505 541.728 267.552 497.34C262.375 494.244 257.376 490.852 252.586 487.183C212.076 456.375 226.896 399.876 276.05 387.354C340.001 371.064 380.157 424.171 438.427 428.13C442.19 428.385 450.227 426.062 452.914 422.759C451.747 418.842 448.868 417.311 444.953 416.37C384.264 401.767 323.656 385.785 267.547 357.592C248.837 348.189 237.422 335.105 231.68 314.606C240.467 298.236 254.488 293.471 260.822 278.24C280.828 230.134 265.081 167.265 287.691 120.866C295.648 116.597 298.349 115.705 306.821 112.958ZM414.54 402.678L445.952 408.896C416.868 371.399 393.845 307.052 454.808 286.344C444.722 224.141 443.178 185.893 385.802 142.348C366.845 127.96 336.795 115.867 312.591 117.139C276.677 124.794 282.557 175.047 279.46 203.604C276.796 228.193 277.875 254.074 268.56 277.588C262.793 293.055 236.043 303.868 241.303 322.58C245.499 337.514 264.015 348.395 276.829 355.445C300.592 368.699 391.497 400.696 414.54 402.678ZM459.584 288.835C464.568 316.981 462.209 356.521 461.538 385.273C461.331 394.148 456.008 410.873 457.943 417.711L460.299 417.193C470.974 409.045 479.964 399.469 490.027 390.737C536.943 350.025 581.604 297.148 597.523 235.961C599.218 229.446 598.131 216.819 590.327 214.416C549.366 236.845 503.928 278.62 459.584 288.835ZM325.3 495.108C331.245 494.271 353.208 491.334 357.269 489.52C371.844 483.002 424.163 451.943 431.176 441.604C428.707 439.418 422.809 439.966 419.17 440.192C417.477 440.31 415.789 440.459 414.105 440.635C395.112 445.887 309.244 467.16 309.731 490.995C314.573 496.663 318.022 495.397 325.3 495.108ZM443.219 395.604C446.261 400.594 449.468 406.13 452.782 410.884C456.558 369.305 456.875 333.5 455.595 291.761L454.125 290C409.937 320.249 420.697 356.083 443.219 395.604Z"/><path fill="#D50A0D" fill-opacity="0.96078432" transform="matrix(0.401807 0 0 0.40176 0 -0.000244141)" d="M340.205 163.403C344.909 166.767 375.279 244.299 377.376 254.677C368.997 247.226 342.787 176.297 340.205 163.403Z"/><path fill="#D50A0D" fill-opacity="0.58823532" transform="matrix(0.401807 0 0 0.40176 0 -0.000244141)" d="M353.484 333.82C365.036 339.454 389.898 352.51 398.186 361.79L398.393 363.26C384.954 356.931 367.082 344.051 351.227 335.95L353.484 333.82Z"/><path fill="#D50A0D" fill-opacity="0.89411765" transform="matrix(0.401807 0 0 0.40176 0 -0.000244141)" d="M351.227 335.95C343.28 331.92 329.492 325.209 323.158 319.071C333.604 323.183 343.522 328.623 353.484 333.82L351.227 335.95Z"/><path fill="#D50A0D" transform="matrix(0.401807 0 0 0.40176 0 -0.000244141)" d="M491.189 446.306C566.558 435.644 636.208 488.358 646.426 563.79C656.641 639.225 603.521 708.565 528.03 718.337C453.164 728.03 384.525 675.445 374.395 600.635C364.263 525.828 416.442 456.879 491.189 446.306ZM523.02 699.148C641.086 686.621 644.367 454.575 499.942 464.159C436.968 473.634 410.653 518.588 409.725 579.285C408.831 637.846 439.06 691.722 501.211 699.11C509.315 700.026 514.696 700.365 523.02 699.148Z"/><path fill="#D50A0D" transform="matrix(0.401807 0 0 0.40176 0 -0.000244141)" d="M916.323 458.236C930.716 457.982 945.115 458.026 959.509 458.368C984.318 513.086 1005.85 571.074 1031.1 625.974C1045.96 658.293 1053.6 679.871 1075.78 709.331C1061.33 710.492 1043.06 709.829 1028.3 709.691C1020.06 690.422 1008.93 654.368 998.266 637.926C997.239 643.379 995.802 649.861 993.906 655.056C985.455 677.592 968.298 695.785 946.296 705.54C910.705 721.588 865.84 712.103 850.422 673.281C834.526 633.75 857.337 601.945 875.54 568.654C891.142 540.125 911.027 508.409 918.902 476.728C920.862 468.836 919.549 465.423 916.323 458.236ZM938.589 683.813C970.365 669.604 978.573 656.253 992.482 625.035C985.884 608.687 937.469 492.798 930.546 486.688L905.893 540.951C893.154 568.586 879.741 593.927 876.974 624.773C873.319 665.516 896.011 692.437 938.589 683.813Z"/><path fill="#D50A0D" transform="matrix(0.401807 0 0 0.40176 0 -0.000244141)" d="M1822.06 450.308C1859.63 446.592 1917.2 457.267 1934.42 495.438C1947.15 523.653 1935 537.087 1909.87 546.655C1905.02 529.756 1905.23 511.751 1897 495.279C1879.7 460.639 1828.64 456.837 1797.6 474.149C1761.14 494.483 1751.25 531.958 1740.97 569.579C1779.35 537.433 1807.31 551.94 1848.15 566.802C1874.97 576.557 1885.21 566.122 1907.15 554.61C1888.65 622.756 1835.08 602.818 1792.31 578.435C1779.98 571.407 1764.96 572.164 1751.73 577.548C1731.58 589.77 1754.58 640.546 1765.27 655.383C1782.89 679.841 1808.08 694.59 1837.63 699.154C1881.89 705.989 1914.78 688.333 1949.4 663.297C1953.02 691.333 1943.76 697.012 1917.13 705.821C1868.25 721.996 1801.81 721.14 1758.03 691.57C1697.21 650.503 1689.76 559.532 1732.04 502.56C1755.52 470.595 1783.53 457.014 1822.06 450.308Z"/><path fill="#D50A0D" transform="matrix(0.401807 0 0 0.40176 0 -0.000244141)" d="M1455.88 456.435C1466.44 458.971 1484.91 458.192 1495.81 457.911C1471.47 521.773 1511.89 623.403 1461.36 679.968C1429.22 715.954 1355.95 726.816 1319.06 691.499C1290.32 663.98 1295.06 616.413 1295.17 579.266C1295.5 548.887 1295.45 518.506 1295.05 488.127C1294.02 473.059 1293.42 471.264 1287.07 458.23C1303.99 457.875 1321.93 458.282 1338.94 458.428C1331.41 492.719 1327.76 626.053 1337.29 658.447C1341.27 671.756 1350.39 682.93 1362.63 689.489C1397.48 707.921 1444.28 682.374 1459.72 648.705C1463.32 640.662 1465.53 632.068 1466.27 623.287C1467.68 608.117 1464.99 591.956 1465.34 576.72C1466.32 533.822 1471.58 497.704 1455.88 456.435Z"/><path fill="#D50A0D" transform="matrix(0.401807 0 0 0.40176 0 -0.000244141)" d="M1725.03 456.411L1725.4 456.521L1726.02 458.109C1713.88 470.939 1702.21 481.207 1690.41 495.281C1668.94 520.879 1648.46 547.2 1627.51 573.224C1636.67 583.296 1655.37 612.273 1663.77 624.793C1684.68 655.926 1702.26 680.959 1726.3 709.468C1710.59 710.547 1691.7 710.005 1675.84 709.636C1658.89 674.925 1628.51 633.147 1605.99 600.531C1588.9 619.898 1565.16 658.527 1553.54 681.418C1552.06 684.333 1547.49 703.12 1546.43 707.269C1540.79 711.522 1516.83 709.972 1508.62 709.854C1504.35 710.044 1502.21 710.459 1498.13 709.05C1501.16 703.426 1514.28 691.515 1519.66 685.357C1547.38 653.655 1575.06 621.696 1597.89 586.225C1572.53 549.609 1535.73 488.807 1508.79 457.696C1519.28 457.6 1558.47 453.683 1564.43 460.52C1564.08 461.368 1562.72 464.473 1562.87 465.007C1569.45 488.306 1609.37 546.022 1621.69 561.762C1643.63 526.846 1678.12 499.735 1674.22 456.639C1691.15 457.071 1708.1 456.994 1725.03 456.411Z"/><path fill="#D50A0D" transform="matrix(0.401807 0 0 0.40176 0 -0.000244141)" d="M1111.64 427.967C1132.03 428.9 1145.18 428.911 1165.3 427.708C1155.84 451.615 1158.29 493.773 1157.99 520.804C1157.22 578.239 1157.44 635.682 1158.64 693.109C1208.42 697.276 1242.51 693.252 1289.88 676.596L1290.17 695.779C1290.15 700.811 1290.58 704.087 1288.6 708.717C1281.88 711.734 1125.39 709.702 1110.71 708.956C1112.62 705.455 1114.76 701.73 1115.99 697.923C1123.45 674.663 1121.37 480.618 1118.17 450.19C1117.28 441.703 1115.34 435.551 1111.64 427.967Z"/><path fill="#D50A0D" transform="matrix(0.401807 0 0 0.40176 0 -0.000244141)" d="M661.62 457.589C678.678 458.007 695.742 458.291 712.805 458.439C705.178 488.075 707.449 534.744 707.534 566.681L707.658 694.975C761.441 695.014 785.951 693.651 836.902 676.612C837.774 684.917 838.082 687.568 837.356 696.071C837.317 701.108 837.141 702.997 836.478 708.018C832.17 711.585 678.802 709.796 658.846 709.84C661.02 706.526 663.396 703.087 664.923 699.415C672.934 680.152 671.455 513.32 668.651 485.088C667.671 475.239 665.397 466.717 661.62 457.589Z"/><path fill="#EC5658" fill-opacity="0.93333334" transform="matrix(0.401807 0 0 0.40176 0 -0.000244141)" d="M1479.05 805.57C1487.61 804.444 1525.11 804.579 1535.54 804.841C1563.08 805.532 1607.09 802.641 1633.16 807.09C1629.01 807.871 1626.04 807.77 1621.84 807.907C1570.38 808.001 1515.51 808.915 1464.35 807.505L1464.62 806.96L1479.05 805.57Z"/><path fill="#EC5658" fill-opacity="0.96470588" transform="matrix(0.401807 0 0 0.40176 0 -0.000244141)" d="M526.279 805.565C543.238 802.988 603.298 804.232 620.551 807.095L603.631 807.973C574.593 808.111 536.585 808.926 508.038 807.125L526.279 805.565Z"/><path transform="matrix(0.401807 0 0 0.40176 0 -0.000244141)" d="M811.021 781.691C815.244 781.583 817.416 781.638 821.63 781.949L821.107 783.205C818.522 783.615 818.988 783.584 816.532 784.589C813.072 789.77 811.864 796.244 812.032 802.363C812.428 816.694 818.112 819.108 830.548 818.943L832.539 818.007C830.361 819.375 829.203 820.179 826.648 820.699C804.993 825.103 810.262 794.295 811.021 781.691Z"/><path fill="#EC5658" fill-opacity="0.86274511" transform="matrix(0.401807 0 0 0.40176 0 -0.000244141)" d="M639.836 805.551C646.357 804.216 668.315 805.138 675.271 806.2L674.874 807.406L668.053 807.935C662.633 807.948 629.938 808.414 628.148 806.867L639.836 805.551Z"/><path transform="matrix(0.401807 0 0 0.40176 0 -0.000244141)" d="M766.575 782.423C773.291 794.248 768.694 816.589 756.792 825.695C758.251 822.51 761.108 819.543 762.834 815.612C767.362 805.281 765.914 793.728 766.575 782.423Z"/><path transform="matrix(0.401807 0 0 0.40176 0 -0.000244141)" d="M1032.76 781.101L1034.07 782.181C1035.97 786.91 1034.11 811.411 1033.84 818.026C1029.44 808.832 1031.86 791.691 1032.76 781.101Z"/></g></svg>